<?xml version="1.0" encoding="utf-8"?>
<!-- Generator: Adobe Illustrator 17.0.0, SVG Export Plug-In . SVG Version: 6.00 Build 0)  -->
<!DOCTYPE svg PUBLIC "-//W3C//DTD SVG 1.1//EN" "http://www.w3.org/Graphics/SVG/1.1/DTD/svg11.dtd">
<svg version="1.1" id="Layer_1" xmlns="http://www.w3.org/2000/svg" xmlns:xlink="http://www.w3.org/1999/xlink" x="0px" y="0px"
	 width="480px" height="480px" viewBox="0 0 480 480" enable-background="new 0 0 480 480" xml:space="preserve">
<g id="Icon">
	
		<linearGradient id="SVGID_1_" gradientUnits="userSpaceOnUse" x1="237.618" y1="-26.899" x2="240.429" y2="434.3256" gradientTransform="matrix(1 0 0 -1 0 481)">
		<stop  offset="0" style="stop-color:#FF6F3F"/>
		<stop  offset="1" style="stop-color:#FF0300"/>
	</linearGradient>
	<path fill="url(#SVGID_1_)" d="M196.68,374.017c-13.645,7.551-27.852,6.102-42.816,5.219c8.301,9.246,31.809,18.301,42.688,9.121
		c7.805-6.543,16.539-12.762,19.875-22.895c2.637-7.918,2.512-19.293-5.414-24.266C215.669,356.157,210.45,366.466,196.68,374.017
		L196.68,374.017z M428.8,181.687c9.121-27.031,13.957-53.379,11.133-79.973c-5.223,25.652-11.191,34.078-23.262,49.547
		c10.941-23.141,14.273-36.973,11.879-56.777c-2.578-21.004-15.781-40.43-31.492-57.09c1.5,12.953,3.074,18.801-0.754,31.125
		c-18.926-30.996-38.227-45.395-85.383-40.805c4.086,0,12.07,6.102,15.277,8.176c5.098,3.27,9.875,7.043,14.336,11.191
		c8.801,8.297,16.098,18.043,21.691,28.73c11.379,21.75,15.594,47.027,10.688,71.109c-6.727,32.945-55.258,56.27-82.863,73.879
		c-6.16,3.961-7.605,5.91-5.219,12.762c1.695,4.906,3.707,9.75,5.656,14.52c-10.121-12.949-19.617-26.152-25.336-41.621
		c-3.523-9.43-2.703-19.363,5.598-26.09c9.434-7.734,21.379-5.156,32.5-4.398c0-11.508-13.707-14.777-21.004-20.562
		c-3.52-2.891-5.715-6.977-9.871-9.18c-3.703-1.945-7.293-1.316-11.129-2.199c-18.547-3.961-32.379-15.34-42.191-31.059
		c0.383,10.562-0.629,25.023,6.473,33.512c-13.074-1.004-19.676-10.062-26.848-19.867c-3.141,15.848,10.754,24.203,22.637,30.305
		c-17.922,15.906-24.707,38.289-22.441,61.809c7.355-18.172,13.008-38.043,29.668-50.113c-7.668,14.836-13.895,27.66-14.086,44.703
		c-0.059,4.777,1.633,10.309,1.133,14.965c-0.441,3.961-3.77,6.914-6.785,9.805c-3.965,3.773-8.43,7.234-13.203,9.996
		c3.391-3.895,14.145-13.641,10.941-18.926c-1.07-1.699-7.355-3.336-9.492-4.59c-1.512-0.883-3.016-1.762-4.461-2.766
		c-0.316-0.188-0.629-0.441-1.004-0.691c-0.316-0.188-0.629-0.441-0.945-0.625c-27.602-17.602-76.824-40.617-83.555-73.562
		c-2.383-11.691-2.637-23.641-0.883-35.332c1.762-12.449,5.723-24.582,11.574-35.773c5.598-10.688,12.887-20.434,21.691-28.73
		c4.461-4.148,9.238-7.922,14.332-11.191c3.211-2.074,11.191-8.176,15.281-8.176c-47.16-4.59-66.457,9.809-85.383,40.805
		c-3.836-12.324-2.266-18.172-0.758-31.125c-15.715,16.66-28.918,36.086-31.492,57.09c-1.699,13.828-0.566,24.711,4.027,37.91
		c1.949,5.723,4.59,11.883,7.918,18.863c-2.645-3.336-5.031-6.414-7.105-9.305c-7.605-10.621-12.133-20.184-16.219-40.238
		c-2.828,26.59,2.012,52.938,11.129,79.973c7.543,21.758,37.93,45.895,58.246,61.992c0.246,0.254,0.496,0.445,0.754,0.633
		c2.199,1.758,4.34,3.391,6.348,4.902c-0.184-0.07-0.379-0.125-0.566-0.188c-16.664-4.215-35.52-16.852-46.145-30.93
		c1.316,3.016,2.762,6.285,4.34,9.684c6.539,13.891,14.844,30.297,23.133,40.926c1.574,2.074,3.273,4.027,5.098,5.914
		c0.941,0.934,1.887,1.82,2.832,2.762c1.512,1.383,3.141,2.766,4.773,4.086c0.691,0.563,1.387,1.129,2.074,1.637
		c7.484,5.723,15.969,10.434,24.707,14.391c0.063,0.066,0.129,0.129,0.188,0.066c6.98,3.703,13.895,7.418,20.496,11.699
		c10.629,6.914,43.926,15.34,53.359,23.703c10.5,9.367,17.977,20.621,13.074,35.266c-4.461,13.203-16.789,24.332-28.418,31.312
		c-5.41,3.269-11.258,5.91-17.23,7.981c-2.578,0.891-20.117,4.344-20.375,5.727c-0.883,5.344,25.844,7.863,29.863,7.551
		c31.18-2.016,50.238-38.984,44.953-67.59c2.578,2.453,9.18,6.73,10.441,10.059c1.254,3.273-0.379,10.125-0.82,13.516
		c-1.133,8.742-3.586,17.23-7.418,25.148c-3.078,6.231-6.918,12.137-12.133,16.855c-5.723,5.223-13.074,6.481-18.93,10.883
		c23.207,31.18,65.703,31.43,88.594-0.316c-30.359-12.324-37.348-37.219-39.359-67.836c-0.941-14.023-7.922-26.719-11.887-40.117
		c-4.773-16.152-7.484-32.82-8.488-49.668c8.559,14.652,11.504,32.641,17.926,48.418c2.637,6.605,5.648,13.32,7.984,20.117
		c3.395,9.938,2.074,20.18,4.027,30.305c3.336,17.098,10.754,35.641,26.531,44.762c12.328,7.172,38.293,9.301,48.922-2.391
		c-24.082-5.414-54.766-16.852-64.945-41.996c-4.09-10.184-3.211-24.836-2.328-35.59c0.566-6.156,1.266-13.711,4.84-18.918
		c3.707-5.414,9.617-5.98,15.527-7.992c24.016-7.984,75.547-19.109,91.52-39.734c10.309-13.203,20.688-35.328,27.473-50.613
		c-10.754,14.273-29.926,27.031-46.711,31.125c20.922-15.801,56.84-43.148,65.332-67.547L428.8,181.687z M283,356.537
		c-0.375-1.316-1.887-16.973-2.703-16.973c-3.836-1.574-2.012,21.191-1.449,23.008c2.516,8.992,7.855,15.723,14.969,21.633
		c15.707,13.016,33.762,6.285,48.723-4.973c-16.094,1.004-31.309,2.391-45.773-6.535C290.415,368.74,285.322,363.834,283,356.537
		L283,356.537z M260.256,150.927l10.665,1.662l4.897,5.263l-9.085-2.14L260.256,150.927z"/>
</g>
</svg>
