<?xml version="1.0" encoding="utf-8"?>
<!-- Generator: Adobe Illustrator 17.0.0, SVG Export Plug-In . SVG Version: 6.00 Build 0)  -->
<!DOCTYPE svg PUBLIC "-//W3C//DTD SVG 1.1//EN" "http://www.w3.org/Graphics/SVG/1.1/DTD/svg11.dtd">
<svg version="1.1" xmlns="http://www.w3.org/2000/svg" xmlns:xlink="http://www.w3.org/1999/xlink" x="0px" y="0px" width="2108px"
	 height="480px" viewBox="744.5 136 2108 480" enable-background="new 744.5 136 2108 480" xml:space="preserve">
<g id="Icon">
</g>
<g id="Logo">
	<g id="Icon_1_">
		<linearGradient id="SVGID_1_" gradientUnits="userSpaceOnUse" x1="962.6177" y1="644.9119" x2="965.4288" y2="183.6874">
			<stop  offset="0" style="stop-color:#FF6F3F"/>
			<stop  offset="1" style="stop-color:#FF0300"/>
		</linearGradient>
		<path fill="url(#SVGID_1_)" d="M921.68,511.03c-13.645,7.551-27.852,6.102-42.816,5.219c8.301,9.246,31.809,18.301,42.688,9.121
			c7.805-6.543,16.539-12.762,19.875-22.895c2.637-7.918,2.512-19.293-5.414-24.266c4.656,14.961-0.563,25.27-14.332,32.82
			L921.68,511.03z M1153.8,318.7c9.121-27.031,13.957-53.379,11.133-79.973c-5.223,25.652-11.191,34.078-23.262,49.547
			c10.941-23.141,14.273-36.973,11.879-56.777c-2.578-21.004-15.781-40.43-31.492-57.09c1.5,12.953,3.074,18.801-0.754,31.125
			c-18.926-30.996-38.227-45.395-85.383-40.805c4.086,0,12.07,6.102,15.277,8.176c5.098,3.27,9.875,7.043,14.336,11.191
			c8.801,8.297,16.098,18.043,21.691,28.73c11.379,21.75,15.594,47.027,10.688,71.109c-6.727,32.945-55.258,56.27-82.863,73.879
			c-6.16,3.961-7.605,5.91-5.219,12.762c1.695,4.906,3.707,9.75,5.656,14.52c-10.121-12.949-19.617-26.152-25.336-41.621
			c-3.523-9.43-2.703-19.363,5.598-26.09c9.434-7.734,21.379-5.156,32.5-4.398c0-11.508-13.707-14.777-21.004-20.562
			c-3.519-2.891-5.715-6.977-9.871-9.18c-3.703-1.945-7.293-1.316-11.129-2.199c-18.547-3.961-32.379-15.34-42.191-31.059
			c0.383,10.562-0.629,25.023,6.473,33.512c-13.074-1.004-19.676-10.062-26.848-19.867c-3.141,15.848,10.754,24.203,22.637,30.305
			c-17.922,15.906-24.707,38.289-22.441,61.809c7.355-18.172,13.008-38.043,29.668-50.113c-7.668,14.836-13.895,27.66-14.086,44.703
			c-0.059,4.777,1.633,10.309,1.133,14.965c-0.441,3.961-3.769,6.914-6.785,9.805c-3.965,3.773-8.43,7.234-13.203,9.996
			c3.391-3.895,14.145-13.641,10.941-18.926c-1.07-1.699-7.355-3.336-9.492-4.59c-1.512-0.883-3.016-1.762-4.461-2.766
			c-0.316-0.188-0.629-0.441-1.004-0.691c-0.316-0.188-0.629-0.441-0.945-0.625c-27.602-17.602-76.824-40.617-83.555-73.562
			c-2.383-11.691-2.637-23.641-0.883-35.332c1.762-12.449,5.723-24.582,11.574-35.773c5.598-10.688,12.887-20.434,21.691-28.73
			c4.461-4.148,9.238-7.922,14.332-11.191c3.211-2.074,11.191-8.176,15.281-8.176c-47.16-4.59-66.457,9.809-85.383,40.805
			c-3.836-12.324-2.266-18.172-0.758-31.125c-15.715,16.66-28.918,36.086-31.492,57.09c-1.699,13.828-0.566,24.711,4.027,37.91
			c1.949,5.723,4.59,11.883,7.918,18.863c-2.645-3.336-5.031-6.414-7.106-9.305c-7.605-10.621-12.133-20.184-16.219-40.238
			c-2.828,26.59,2.012,52.938,11.129,79.973c7.543,21.758,37.93,45.895,58.246,61.992c0.246,0.254,0.496,0.445,0.754,0.633
			c2.199,1.758,4.34,3.391,6.348,4.902c-0.184-0.07-0.379-0.125-0.566-0.188c-16.664-4.215-35.52-16.852-46.145-30.93
			c1.316,3.016,2.762,6.285,4.34,9.684c6.539,13.891,14.844,30.297,23.133,40.926c1.574,2.074,3.273,4.027,5.098,5.914
			c0.941,0.934,1.887,1.82,2.832,2.762c1.512,1.383,3.141,2.766,4.773,4.086c0.691,0.563,1.387,1.129,2.074,1.637
			c7.484,5.723,15.969,10.434,24.707,14.391c0.063,0.066,0.129,0.129,0.188,0.066c6.981,3.703,13.895,7.418,20.496,11.699
			c10.629,6.914,43.926,15.34,53.359,23.703c10.5,9.367,17.977,20.621,13.074,35.266c-4.461,13.203-16.789,24.332-28.418,31.312
			c-5.41,3.269-11.258,5.91-17.23,7.981c-2.578,0.891-20.117,4.344-20.375,5.727c-0.883,5.344,25.844,7.863,29.863,7.551
			c31.18-2.016,50.238-38.984,44.953-67.59c2.578,2.453,9.18,6.73,10.441,10.059c1.254,3.273-0.379,10.125-0.82,13.516
			c-1.133,8.742-3.586,17.23-7.418,25.148c-3.078,6.231-6.918,12.137-12.133,16.855c-5.723,5.223-13.074,6.481-18.93,10.883
			c23.207,31.18,65.703,31.43,88.594-0.316c-30.359-12.324-37.348-37.219-39.359-67.836c-0.941-14.023-7.922-26.719-11.887-40.117
			c-4.773-16.152-7.484-32.82-8.488-49.668c8.559,14.652,11.504,32.641,17.926,48.418c2.637,6.605,5.648,13.32,7.984,20.117
			c3.395,9.938,2.074,20.18,4.027,30.305c3.336,17.098,10.754,35.641,26.531,44.762c12.328,7.172,38.293,9.301,48.922-2.391
			c-24.082-5.414-54.766-16.852-64.945-41.996c-4.09-10.184-3.211-24.836-2.328-35.59c0.566-6.156,1.266-13.711,4.84-18.918
			c3.707-5.414,9.617-5.98,15.527-7.992c24.016-7.984,75.547-19.109,91.52-39.734c10.309-13.203,20.688-35.328,27.473-50.613
			c-10.754,14.273-29.926,27.031-46.711,31.125c20.922-15.801,56.84-43.148,65.332-67.547L1153.8,318.7z M1008,493.55
			c-0.375-1.316-1.887-16.973-2.703-16.973c-3.836-1.574-2.012,21.191-1.449,23.008c2.516,8.992,7.856,15.723,14.969,21.633
			c15.707,13.016,33.762,6.285,48.723-4.973c-16.094,1.004-31.309,2.391-45.773-6.535
			C1015.415,505.753,1010.322,500.847,1008,493.55L1008,493.55z M985.256,287.94l10.665,1.662l4.897,5.263l-9.085-2.14
			L985.256,287.94z"/>
		<g>
			<linearGradient id="SVGID_2_" gradientUnits="userSpaceOnUse" x1="1310.842" y1="560.7622" x2="1308.842" y2="227.7622">
				<stop  offset="0" style="stop-color:#FF6F3F"/>
				<stop  offset="1" style="stop-color:#FF0300"/>
			</linearGradient>
			<path fill="url(#SVGID_2_)" d="M1221.856,517.921l3.013-39.639l4.185-87.803l2.009-63.721c0.109-5.797,0.166-11.65,0.166-17.561
				c0-4.348-0.057-10.871-0.166-19.568c14.269,0.224,25.865,0.335,34.785,0.335c7.133,0,17.057-0.167,29.767-0.502
				c12.711-0.335,22.8-0.502,30.27-0.502c15.387,0,26.703,1.116,33.952,3.345c7.688,2.454,14.435,6.301,20.233,11.54
				c5.795,5.242,10.201,11.54,13.214,18.899c3.345,8.252,5.015,17.116,5.015,26.592c0,14.383-3.595,27.458-10.786,39.22
				c-7.193,11.764-17.143,20.545-29.854,26.341c-12.711,5.798-26.817,8.697-42.315,8.697c-7.582,0-15.664-0.778-24.25-2.341
				c-2.453-11.596-5.243-22.466-8.362-32.614c6.893,1.452,13.734,2.175,20.518,2.175c9.232,0,17.24-1.392,24.024-4.182
				c6.784-2.785,12.181-7.329,16.185-13.63c4.004-6.298,6.004-13.405,6.004-21.323c0-4.683-0.835-8.974-2.503-12.878
				c-1.67-3.901-4.088-7.024-7.26-9.366c-3.169-2.341-6.672-3.931-10.51-4.766c-3.838-0.837-9.319-1.255-16.437-1.255
				c-6.229,0-12.515,0.113-18.853,0.335c-6.341,0.224-11.96,0.334-16.854,0.334c-1.331,21.855-2.327,42.759-2.991,62.718
				l-1.992,63.888c-0.667,22.637-0.999,39.247-0.999,49.84c0,4.014,0.055,9.812,0.166,17.394l-24.269-0.335
				C1243.838,517.586,1235.468,517.698,1221.856,517.921z"/>
			<linearGradient id="SVGID_3_" gradientUnits="userSpaceOnUse" x1="1538.2178" y1="559.3966" x2="1536.2178" y2="226.3966">
				<stop  offset="0" style="stop-color:#FF6F3F"/>
				<stop  offset="1" style="stop-color:#FF0300"/>
			</linearGradient>
			<path fill="url(#SVGID_3_)" d="M1423.555,517.921l3.892-60.04c2.143-32.78,3.667-63.192,4.571-91.235
				c0.902-28.039,1.353-47.581,1.353-58.619l-0.166-18.397c13.127,0.224,22.416,0.335,27.867,0.335
				c4.115,0,12.515-0.11,25.201-0.335l-4.42,75.428l-0.51,17.394h113.854l2.066-45.237c0.461-15.525,0.691-25.746,0.691-30.662
				v-16.923l27.951,0.335c2.453,0,10.82-0.11,25.104-0.335l-5.528,91.15l-2.349,67.568l-0.624,39.639
				c-0.208,16.279-0.312,26.257-0.312,29.936l-26.115-0.335c-3.238,0-12.503,0.112-27.79,0.335
				c2.919-31.551,4.767-64.723,5.555-99.511h-114.196l-2.359,61.547l-0.676,37.964l-27.451-0.335
				C1446.152,517.586,1437.614,517.698,1423.555,517.921z"/>
			<linearGradient id="SVGID_4_" gradientUnits="userSpaceOnUse" x1="1814.3331" y1="557.7382" x2="1812.3331" y2="224.7382">
				<stop  offset="0" style="stop-color:#FF6F3F"/>
				<stop  offset="1" style="stop-color:#FF0300"/>
			</linearGradient>
			<path fill="url(#SVGID_4_)" d="M1818.927,285.615c16.613,0,32.555,2.287,47.833,6.857c15.275,4.573,28.821,12.016,40.64,22.327
				c11.819,10.315,20.739,22.328,26.76,36.042c6.021,13.713,9.034,29.714,9.034,48c0,17.171-2.844,33.591-8.531,49.255
				c-5.686,15.667-14.495,29.158-26.425,40.474c-11.933,11.318-26.455,19.708-43.568,25.169
				c-17.116,5.463-35.095,8.196-53.935,8.196c-17.842,0-34.985-2.507-51.43-7.527c-16.447-5.015-30.605-12.877-42.481-23.581
				c-11.873-10.704-20.377-22.996-25.506-36.879c-5.129-13.88-7.691-28.905-7.691-45.072c0-17.728,3.204-34.676,9.616-50.843
				c6.41-16.166,15.83-29.546,28.263-40.139c12.431-10.591,26.983-18.619,43.653-24.084
				C1781.825,288.348,1799.749,285.615,1818.927,285.615z M1816.251,321.238c-16.836,0-31.499,3.875-43.987,11.623
				c-12.488,7.752-21.881,18.343-28.179,31.777c-6.301,13.437-9.45,27.959-9.45,43.568c0,14.495,3.038,27.847,9.116,40.055
				c6.075,12.21,15.411,21.522,28.013,27.931c12.599,6.412,26.2,9.616,40.808,9.616c11.038,0,21.576-1.895,31.611-5.686
				c10.035-3.788,18.702-9.559,26.006-17.309c7.302-7.748,12.795-17.086,16.472-28.016c3.682-10.924,5.52-22.297,5.52-34.118
				c0-11.036-1.645-21.628-4.933-31.774c-3.29-10.146-8.392-18.872-15.305-26.175c-6.913-7.302-15.248-12.711-25.003-16.224
				C1837.183,322.995,1826.954,321.238,1816.251,321.238z"/>
			<linearGradient id="SVGID_5_" gradientUnits="userSpaceOnUse" x1="2064.2754" y1="556.2371" x2="2062.2754" y2="223.2371">
				<stop  offset="0" style="stop-color:#FF6F3F"/>
				<stop  offset="1" style="stop-color:#FF0300"/>
			</linearGradient>
			<path fill="url(#SVGID_5_)" d="M1974.803,517.921l4.844-64.054l3.506-74.092l2.173-67.4v-22.746
				c27.54,0.224,56.254,0.335,86.138,0.335l32.114-0.167l48.338-0.167l-2.007,36.125l-15.887-0.836
				c-4.351-0.222-10.372-0.389-18.063-0.502c-7.696-0.11-15.555-0.167-23.583-0.167c-17.394,0-28.628,0.028-33.7,0.084
				c-5.074,0.057-12.74,0.25-22.996,0.585l-2.723,59.374c15.28,0.332,30.672,0.501,46.18,0.501c10.709,0,28.779-0.335,54.215-1.003
				c-0.894,10.146-1.675,22.302-2.344,36.46c-29.763-0.334-46.819-0.5-51.165-0.5c-13.157,0-29.544,0.332-49.163,1.001
				l-2.718,62.553l18.4,0.166c5.352,0,17.622-0.109,36.802-0.335l36.301-0.669l24.255-1.169
				c-1.115,12.934-1.896,25.144-2.339,36.626c-28.992-0.223-55.137-0.335-78.44-0.335l-55.025,0.166L1974.803,517.921z"/>
			<linearGradient id="SVGID_6_" gradientUnits="userSpaceOnUse" x1="2301.2529" y1="554.8138" x2="2299.2529" y2="221.8138">
				<stop  offset="0" style="stop-color:#FF6F3F"/>
				<stop  offset="1" style="stop-color:#FF0300"/>
			</linearGradient>
			<path fill="url(#SVGID_6_)" d="M2184.194,517.921c2.109-19.958,3.719-42.369,4.829-67.233l3.831-81.951
				c1.333-29.657,2-56.028,2-79.108c12.926,0.224,23.898,0.335,32.924,0.335c6.685,0,16.432-0.11,29.247-0.335
				c12.609,21.966,30.015,50.621,52.223,85.966c22.208,35.345,40.119,64.614,53.732,87.803l6.135-155.205
				c0.109-3.679,0.164-9.868,0.164-18.564c10.493,0.224,18.419,0.335,23.779,0.335c2.121,0,9.936-0.11,23.442-0.335l-4.165,61.38
				l-5.166,105.031l-2,61.881c-11.596-0.223-21.465-0.335-29.601-0.335c-6.472,0-16.953,0.112-31.445,0.335
				c-5.577-9.923-9.817-17.282-12.716-22.077c-4.574-7.359-14.334-22.52-29.279-45.491c-9.814-15.161-22.084-34.562-36.807-58.202
				c-10.82-17.394-20.077-32.555-27.773-45.491c-0.887,18.063-2.27,51.569-4.145,100.517c-0.773,19.958-1.383,43.541-1.824,70.744
				c-10.496-0.223-18.085-0.335-22.773-0.335C2205.121,517.586,2196.917,517.698,2184.194,517.921z"/>
			<linearGradient id="SVGID_7_" gradientUnits="userSpaceOnUse" x1="2486.0542" y1="553.7039" x2="2484.0542" y2="220.7039">
				<stop  offset="0" style="stop-color:#FF6F3F"/>
				<stop  offset="1" style="stop-color:#FF0300"/>
			</linearGradient>
			<path fill="url(#SVGID_7_)" d="M2453.961,517.921c2.664-38.355,4.827-77.687,6.494-117.992
				c1.665-40.308,2.498-71.107,2.498-92.404l-0.166-17.895l27.951,0.335c1.558,0,10.094-0.11,25.607-0.335
				c-4.554,58.649-7.438,134.745-8.66,228.292l-24.604-0.335C2478.954,517.586,2469.247,517.698,2453.961,517.921z"/>
			<linearGradient id="SVGID_8_" gradientUnits="userSpaceOnUse" x1="2657.5981" y1="552.6736" x2="2655.5981" y2="219.6736">
				<stop  offset="0" style="stop-color:#FF6F3F"/>
				<stop  offset="1" style="stop-color:#FF0300"/>
			</linearGradient>
			<path fill="url(#SVGID_8_)" d="M2475.232,598.03l61.465-84.339c4.486-6.323,12.071-17.536,22.759-33.645l51.493-77.937
				l16.091-25.808l-30.337-39.472l-72.812-89.616c14.052-1.038,27.521-2.165,40.402-3.376c10.305-0.968,22.101-2.214,35.387-3.745
				c9.33,15.655,19.78,31.835,31.356,48.536c11.576,16.705,20.569,30.428,26.982,41.172c7.779-12.498,74.249-76.77,93.92-95.85
				c19.033-18.461,69.926-75.946,85.917-77.731c-10.064,15.589-65.853,102.478-84.363,129.88
				c-18.51,27.401-36.014,54.265-52.508,80.584c22.691,30.074,60.095,76.801,112.214,140.177c-16.744,1.293-28.9,2.295-36.474,3.007
				c-12.289,1.155-25.489,2.535-39.611,4.142c-9.2-12.833-21.438-28.355-36.71-46.569c-15.276-18.209-27.386-33.163-36.34-44.86
				c-7.063,11.649-47.444,51.441-60.246,65.025C2591.85,500.307,2541.458,555.923,2475.232,598.03z"/>
		</g>
	</g>
</g>
</svg>
